# xmcd
#
# Track frame offsets:
#	150
#	10832
#	31480
#	52570
#	69807
#	81360
#	95435
#	105215
#	116817
#	128310
#	139030
#	149125
#	161087
#	173327
#	184557
#	196030
#	205650
#	216810
#	229710
#	240637
#	251800
#	270367
#	289400
#
# Disc length: 4055
#
# Revision: 1
# Processed by: cddbd v1.5.1PL0 Copyright (c) Steve Scherf et al.
# Submitted via: dBpowerAMP V4.0
# Normalized: r0:TDELIM( - )
#
DISCID=310fd517
DTITLE=Various Artist - Floor Fillers CD 2
DYEAR=1900
DGENRE=soul
TTITLE0=Lavern Baker - I'm The One To Do It
TTITLE1=Prince Philip Michell - I'm So Happy
TTITLE2=Collins and Collins - At The Top Of The Stairs
TTITLE3=Gloria Scott - (A Case Of) Too Much Lovemaking
TTITLE4=Bobby Sheen - Something New To Do
TTITLE5=Carla Thomas - I'll Never Stop Loving You
TTITLE6=Charads - Key To My Happiness
TTITLE7=Cavaliers - Ooh It Hurts
TTITLE8=Bernie Williams - Ever Again
TTITLE9=Bobby James - I Really Love You
TTITLE10=Timmie Williams - Competition
TTITLE11=Roy Hamilton - You Shook Me Up
TTITLE12=Van Dykes - Save My Love For A Rainy Day
TTITLE13=Morris Chestnut - Too Darn Soulful
TTITLE14=Lou Ragland - I Travel Alone
TTITLE15=Metro's - i'll Never Forget You
TTITLE16=Willie Kendrick - She'll Be Leaving You
TTITLE17=Jimmy 'Soul' Clark - I'll Be Your Champion
TTITLE18=Marvin Gaye - Lonely Lover
TTITLE19=Mayfield Players - Don't Start None
TTITLE20=Jean,  Scherrie and Lynda With The Originals - Back By Popular Demand
TTITLE21=Ronnie McNeir - You're My Lucky Number
TTITLE22=Jackie Wilson - Because Of You
EXTD=tim1701
EXTT0=
EXTT1=
EXTT2=
EXTT3=
EXTT4=
EXTT5=
EXTT6=
EXTT7=
EXTT8=
EXTT9=
EXTT10=
EXTT11=
EXTT12=
EXTT13=
EXTT14=
EXTT15=
EXTT16=
EXTT17=
EXTT18=
EXTT19=
EXTT20=
EXTT21=
EXTT22=
PLAYORDER=
